<svg width="31" height="31" viewBox="0 0 31 31" fill="none" xmlns="http://www.w3.org/2000/svg">
<circle cx="15.0408" cy="8.78278" r="6.74244" fill="#FFA31A"/>
<path d="M15.041 12.3203C15.6022 12.3196 16.146 12.1262 16.5807 11.7727C17.0155 11.4191 17.3146 10.9271 17.4276 10.3795H12.6543C12.7673 10.9271 13.0664 11.4191 13.5012 11.7727C13.9359 12.1262 14.4797 12.3196 15.041 12.3203Z" fill="white"/>
<path d="M17.2326 8.1501L18.2189 7.1676C18.3672 7.01853 18.4504 6.8171 18.4503 6.6072C18.4506 6.46561 18.4127 6.32654 18.3405 6.20457C18.2684 6.08259 18.1645 5.98222 18.04 5.91399C17.9155 5.84576 17.7748 5.81217 17.6327 5.81676C17.4906 5.82135 17.3524 5.86394 17.2326 5.94007C17.0675 5.83641 16.8698 5.79695 16.6773 5.82922C16.4848 5.86149 16.311 5.96323 16.1891 6.11503C16.0671 6.26682 16.0055 6.45804 16.0161 6.65218C16.0266 6.84633 16.1086 7.02981 16.2463 7.1676L17.2326 8.1501Z" fill="white"/>
<path d="M12.849 8.1501L13.8354 7.1676C13.9837 7.01853 14.0669 6.8171 14.0667 6.6072C14.0671 6.46561 14.0292 6.32654 13.957 6.20457C13.8848 6.08259 13.781 5.98222 13.6565 5.91399C13.5319 5.84576 13.3912 5.81217 13.2492 5.81676C13.1071 5.82135 12.9689 5.86394 12.849 5.94007C12.6839 5.83641 12.4862 5.79695 12.2938 5.82922C12.1013 5.86149 11.9275 5.96323 11.8055 6.11503C11.6835 6.26682 11.622 6.45804 11.6325 6.65218C11.6431 6.84633 11.725 7.02981 11.8627 7.1676L12.849 8.1501Z" fill="white"/>
<path d="M5.9104 8.43876C5.91126 9.04412 6.11449 9.63195 6.48802 10.1095C6.86155 10.587 7.38409 10.927 7.97316 11.0758C8.5485 12.6007 9.60357 13.8993 10.9808 14.7777C10.8924 14.8105 10.8148 14.8669 10.7565 14.9407C10.6982 15.0146 10.6615 15.103 10.6504 15.1963C10.6393 15.2896 10.6543 15.3842 10.6937 15.4696C10.7331 15.5549 10.7954 15.6278 10.8737 15.6802C12.1094 16.495 13.5586 16.9295 15.0406 16.9295C16.5226 16.9295 17.9717 16.495 19.2075 15.6802C19.2858 15.6278 19.3481 15.5549 19.3875 15.4696C19.4269 15.3842 19.4419 15.2896 19.4308 15.1963C19.4197 15.103 19.383 15.0146 19.3247 14.9407C19.2664 14.8669 19.1888 14.8105 19.1003 14.7777C20.4776 13.8993 21.5327 12.6007 22.108 11.0758C22.1324 11.0685 22.1592 11.0636 22.1835 11.0539C22.6471 10.9241 23.0679 10.6741 23.403 10.3295C23.7381 9.98497 23.9756 9.55809 24.0911 9.09237C24.2067 8.62664 24.1963 8.13873 24.061 7.67831C23.9257 7.2179 23.6703 6.80143 23.3208 6.47133C23.3208 6.47133 23.3233 6.4592 23.3257 6.43737C23.0444 6.17905 22.7163 5.97651 22.3589 5.84059C22.3555 5.85134 22.3514 5.86188 22.3467 5.87212C22.2688 5.84544 22.1908 5.82361 22.1129 5.80177C22.1056 5.78479 22.1007 5.76781 22.0934 5.75083C21.5451 4.32471 20.5741 3.09859 19.3094 2.23541C18.0447 1.37223 16.5462 0.912886 15.0132 0.918415C13.4801 0.923944 11.9851 1.39409 10.7267 2.26636C9.46831 3.13864 8.50622 4.37174 7.96828 5.80177C7.89035 5.82361 7.81242 5.84544 7.73449 5.87212V3.45347C7.9202 3.34666 8.06535 3.1818 8.14741 2.98444C8.22947 2.78709 8.24387 2.56828 8.18837 2.36195C8.13287 2.15561 8.01057 1.97329 7.84044 1.84325C7.67031 1.71321 7.46186 1.64272 7.24742 1.64272C7.03297 1.64272 6.82452 1.71321 6.65439 1.84325C6.48427 1.97329 6.36197 2.15561 6.30646 2.36195C6.25096 2.56828 6.26536 2.78709 6.34742 2.98444C6.42949 3.1818 6.57463 3.34666 6.76034 3.45347V6.47133C6.49164 6.72433 6.27766 7.02934 6.1315 7.36766C5.98535 7.70597 5.91011 8.07045 5.9104 8.43876ZM15.0406 2.37393C16.2448 2.37393 17.4219 2.72962 18.4231 3.39603C19.4244 4.06245 20.2047 5.00965 20.6655 6.11785C21.1264 7.22606 21.2469 8.44549 21.012 9.62195C20.7771 10.7984 20.1972 11.8791 19.3457 12.7273C18.4943 13.5754 17.4094 14.1531 16.2284 14.3871C15.0473 14.6211 13.8232 14.501 12.7107 14.0419C11.5981 13.5829 10.6473 12.8056 9.97826 11.8082C9.30925 10.8108 8.95217 9.63828 8.95217 8.43876C8.95205 7.64228 9.10946 6.85358 9.41539 6.11771C9.72132 5.38184 10.1698 4.71321 10.7352 4.15001C11.3005 3.58682 11.9718 3.14009 12.7105 2.83534C13.4492 2.5306 14.241 2.37381 15.0406 2.37393Z" fill="#FFA31A"/>
<path d="M29.9867 16.1193C29.2049 15.2848 28.0895 14.6637 26.5747 14.2271C26.3685 14.1672 26.156 14.1314 25.9415 14.1203C24.6978 14.0536 23.4577 14.3066 22.3405 14.855C22.3075 14.8713 22.2763 14.8911 22.2475 14.9139L21.1658 15.7699C19.3616 16.9992 17.2267 17.6569 15.0408 17.6569C12.855 17.6569 10.7201 16.9992 8.91587 15.7699L7.83411 14.9139C7.80527 14.8911 7.77408 14.8713 7.74105 14.855C6.62383 14.3065 5.38381 14.0536 4.14012 14.1203C3.92562 14.1314 3.71314 14.1672 3.50693 14.2271C1.99213 14.6637 0.876732 15.2848 0.0949793 16.1193L0 16.2212L0.116898 16.3012C1.01897 16.9432 2.01663 17.4401 3.07343 17.7738C3.47589 17.8763 3.89038 17.9245 4.30573 17.9169C4.77819 17.9169 5.275 17.8708 5.78643 17.8247C6.0987 17.798 6.41608 17.7692 6.7326 17.7517C6.79887 17.748 6.86519 17.7579 6.9275 17.7807C6.98981 17.8034 7.04681 17.8386 7.09501 17.884C7.14322 17.9295 7.18161 17.9842 7.20786 18.045C7.2341 18.1057 7.24764 18.1711 7.24765 18.2372V23.0751C7.24765 27.3044 10.5758 30.8799 14.8199 30.9969C15.8615 31.0262 16.8984 30.8471 17.8693 30.4704C18.8401 30.0936 19.7253 29.5267 20.4725 28.8032C21.2196 28.0798 21.8136 27.2144 22.2192 26.2584C22.6248 25.3023 22.8339 24.2749 22.834 23.237V18.2372C22.834 18.1711 22.8475 18.1057 22.8738 18.045C22.9 17.9843 22.9384 17.9295 22.9866 17.8841C23.0348 17.8386 23.0918 17.8034 23.1541 17.7807C23.2165 17.7579 23.2828 17.748 23.349 17.7517C23.6656 17.7693 23.9829 17.798 24.2952 17.8247C24.8066 17.8708 25.3034 17.9169 25.7783 17.9169C26.1921 17.9245 26.605 17.8763 27.0058 17.7738C28.0636 17.4406 29.0621 16.9437 29.9647 16.3012L30.0816 16.2212L29.9867 16.1193Z" fill="#12C012"/>
</svg>
